# xmcd
#
# Track frame offsets:
#	150
#	39210
#	65370
#	90970
#	127158
#	163540
#	185682
#	219720
#	244764
#
# Disc length: 3697 seconds
#
# Revision: 1
# Processed by: cddbd v1.5.2PL0 Copyright (c) Steve Scherf et al.
# Submitted via: audiograbber 1.83.01
#
DISCID=770e6f09
DTITLE=Grateful Dead - 84-12-31 San Francisco Civic Auditorium, San Francisco C
DTITLE=A
DYEAR=1900
DGENRE=
TTITLE0=Space
TTITLE1=Spanish Jam
TTITLE2=The Wheel
TTITLE3=Throwing Stones
TTITLE4=Turn On Your Lovelight
TTITLE5=Gimme Some Lovin
TTITLE6=Uncle John's Band
TTITLE7=Around and Around
TTITLE8=It's All Over Now, Baby Blue
EXTD=
EXTT0=
EXTT1=
EXTT2=
EXTT3=
EXTT4=
EXTT5=
EXTT6=
EXTT7=
EXTT8=
PLAYORDER=
